<svg xmlns="http://www.w3.org/2000/svg"><symbol style="enable-background:new 0 0 611.999 611.999" id="bell" viewBox="0 0 611.999 611.999"><path d="M570.107 500.254c-65.037-29.371-67.511-155.441-67.559-158.622v-84.578c0-81.402-49.742-151.399-120.427-181.203C381.969 34 347.883 0 306.001 0c-41.883 0-75.968 34.002-76.121 75.849-70.682 29.804-120.425 99.801-120.425 181.203v84.578c-.046 3.181-2.522 129.251-67.561 158.622a17.257 17.257 0 0 0 7.103 32.986h164.88c3.38 18.594 12.172 35.892 25.619 49.903 17.86 18.608 41.479 28.856 66.502 28.856 25.025 0 48.644-10.248 66.502-28.856 13.449-14.012 22.241-31.311 25.619-49.903h164.88a17.26 17.26 0 0 0 16.872-13.626 17.25 17.25 0 0 0-9.764-19.358zm-85.673-60.395c6.837 20.728 16.518 41.544 30.246 58.866H97.32c13.726-17.32 23.407-38.135 30.244-58.866h356.87zM306.001 34.515c18.945 0 34.963 12.73 39.975 30.082-12.912-2.678-26.282-4.09-39.975-4.09s-27.063 1.411-39.975 4.09c5.013-17.351 21.031-30.082 39.975-30.082zM143.97 341.736v-84.685c0-89.343 72.686-162.029 162.031-162.029s162.031 72.686 162.031 162.029v84.826c.023 2.596.427 29.879 7.303 63.465H136.663c6.88-33.618 7.286-60.949 7.307-63.606zm162.031 235.749c-26.341 0-49.33-18.992-56.709-44.246h113.416c-7.379 25.254-30.364 44.246-56.707 44.246z"/><path d="M306.001 119.235c-74.25 0-134.657 60.405-134.657 134.654 0 9.531 7.727 17.258 17.258 17.258 9.531 0 17.258-7.727 17.258-17.258 0-55.217 44.923-100.139 100.142-100.139 9.531 0 17.258-7.727 17.258-17.258-.001-9.532-7.728-17.257-17.259-17.257z"/></symbol><symbol style="enable-background:new 0 0 463 463" id="criminal" viewBox="0 0 463 463"><path d="M215.5 263h32a7.5 7.5 0 0 0 0-15h-32a7.5 7.5 0 0 0 0 15z"/><path d="M424.32 339.525a7.604 7.604 0 0 0-.66-.292l-56.815-21.864a21.165 21.165 0 0 1-12.517-13.101l-2.277-6.832c12.723-18.265 17.624-36.194 5.689-54.097-5.402-8.104-12.05-13.942-20.244-17.787C341.063 212.308 343 198.175 343 183.5v-.5h.5c8.547 0 15.5-6.953 15.5-15.5v-16c0-5.827-3.235-10.908-8-13.555V119.5C351 53.607 297.393 0 231.5 0S112 53.607 112 119.5v18.445c-4.765 2.647-8 7.728-8 13.555v16c0 8.547 6.953 15.5 15.5 15.5h.5v.5c0 14.675 1.937 28.808 5.504 42.053-8.195 3.845-14.842 9.683-20.244 17.787-11.935 17.902-7.034 35.831 5.689 54.097l-2.277 6.832a21.158 21.158 0 0 1-12.517 13.101L39.34 339.233a7.19 7.19 0 0 0-.66.292C19.756 348.987 8 368.008 8 389.166V439.5C8 452.458 18.542 463 31.5 463h400c12.958 0 23.5-10.542 23.5-23.5v-50.334c0-21.158-11.756-40.179-30.68-49.641zm-79.06-87.865c4.378 6.567 7.955 16.379-3.345 34.104-5.868 9.204-14.678 18.991-24.751 29.228a8.46 8.46 0 0 1-6.163-8.165V279.5a7.54 7.54 0 0 0-.075-1.003c9.014-11.128 16.461-24.134 21.903-38.487 4.921 2.66 8.944 6.42 12.431 11.65zM138.352 215h1.848c5.284 0 10.25 2.058 14.006 5.813C160.775 227.382 169.51 231 178.8 231h105.4c9.29 0 18.024-3.618 24.613-10.207A19.65 19.65 0 0 1 322.8 215h1.848c-11.119 51.215-48.663 89-93.148 89s-82.029-37.785-93.148-89zm22.02 108.2A23.42 23.42 0 0 0 167 306.828V293.97c18.219 15.756 40.485 25.03 64.5 25.03s46.281-9.274 64.5-25.03v12.857a23.416 23.416 0 0 0 6.627 16.371C280.811 336.821 256.337 344 231.5 344c-24.836 0-49.312-7.178-71.128-20.8zM231.5 359c17.119 0 34.061-3.067 50.229-8.972-20.476 20.803-39.967 43.388-50.229 68.686-10.262-25.298-29.754-47.884-50.229-68.687 16.168 5.906 33.11 8.973 50.229 8.973zM344 167.5a.5.5 0 0 1-.5.5H327v-17h16.5a.5.5 0 0 1 .5.5v16zm-57 .5v-17h25v17h-25zm-48 0v-17h33v17h-33zm-48 0v-17h33v17h-33zm-40 0v-17h25v17h-25zm145-32h-33v-16.5c0-30.429-2.556-59.112-7.196-80.768-1.597-7.454-3.359-13.783-5.309-19.031 9.454 4.791 18.21 13.15 25.608 24.658C288.934 64.319 296 91.004 296 119.5V136zm-81 0v-16.5c0-27.144 2.123-53.161 5.978-73.258 3.876-20.206 8.362-28.397 10.522-30.734 2.16 2.337 6.646 10.528 10.522 30.734C245.877 66.339 248 92.356 248 119.5V136h-33zm-2.495-116.298c-1.951 5.248-3.712 11.577-5.309 19.031C202.556 60.388 200 89.071 200 119.5V136h-33v-16.5c0-28.496 7.066-55.181 19.897-75.14 7.398-11.509 16.154-19.867 25.608-24.658zM336 119.5V136h-25v-16.5c0-31.337-7.912-60.903-22.279-83.251a107.281 107.281 0 0 0-5.156-7.33C314.878 46.987 336 80.823 336 119.5zM179.436 28.918a107.425 107.425 0 0 0-5.156 7.33C159.912 58.597 152 88.163 152 119.5V136h-25v-16.5c0-38.677 21.122-72.513 52.436-90.582zM119 167.5v-16a.5.5 0 0 1 .5-.5H136v17h-16.5a.5.5 0 0 1-.5-.5zm65.025 15.5c-.011.166-.025.331-.025.5v8a7.5 7.5 0 0 0 15 0v-8c0-.169-.014-.334-.025-.5h65.05c-.011.166-.025.331-.025.5v8a7.5 7.5 0 0 0 15 0v-8c0-.169-.014-.334-.025-.5H328v.5c0 5.597-.314 11.104-.909 16.5H322.8c-9.29 0-18.024 3.618-24.613 10.207A19.65 19.65 0 0 1 284.2 216H178.8c-5.284 0-10.25-2.058-14.006-5.813C158.225 203.618 149.49 200 140.2 200h-4.292a150.77 150.77 0 0 1-.909-16.5v-.5h49.026zm-66.285 68.66c3.487-5.23 7.51-8.99 12.432-11.65 5.442 14.353 12.889 27.359 21.903 38.487A7.54 7.54 0 0 0 152 279.5v27.328a8.46 8.46 0 0 1-6.163 8.165c-10.073-10.237-18.884-20.024-24.751-29.228-11.3-17.726-7.724-27.537-3.346-34.105zM23 439.5v-50.334c0-15.323 8.451-29.112 22.079-36.068l56.463-21.729a36.087 36.087 0 0 0 20.455-19.958c8.845 10.13 19.357 20.385 30.052 30.816 31.753 30.969 67.484 65.83 71.556 105.774H103v-24.5a7.5 7.5 0 0 0-15 0V448H31.5c-4.687 0-8.5-3.813-8.5-8.5zm417 0c0 4.687-3.813 8.5-8.5 8.5H375v-24.5a7.5 7.5 0 0 0-15 0V448H239.395c4.072-39.944 39.802-74.805 71.556-105.774 10.695-10.431 21.207-20.686 30.052-30.816a36.087 36.087 0 0 0 20.455 19.958l56.463 21.729C431.549 360.054 440 373.842 440 389.166V439.5z"/></symbol><symbol style="enable-background:new 0 0 386.257 386.257" id="downarrow" viewBox="0 0 386.257 386.257"><path d="m0 96.879 193.129 192.5 193.128-192.5z"/></symbol><symbol style="enable-background:new 0 0 266.629 266.629" id="email" viewBox="0 0 266.629 266.629"><path style="fill:#010002" d="M266.623 256.811c0-.397-.044-2.143-.125-2.513l-2.252-171.102c-.005-.299-.092-.571-.141-.859-.033-.19-.038-.375-.092-.566a5.352 5.352 0 0 0-.761-1.621c-.12-.179-.305-.31-.451-.473a5.226 5.226 0 0 0-.887-.805c-.12-.087-.185-.212-.315-.288L136.053 3.307c-.218-.131-.457-.147-.685-.245-.359-.152-.696-.31-1.077-.381-.343-.065-.68-.054-1.023-.054-.348 0-.685-.011-1.033.054-.375.071-.713.223-1.066.375-.228.098-.473.114-.696.245L4.232 78.584c-.087.049-.131.141-.218.196a5.516 5.516 0 0 0-1.175 1.066c-.076.092-.174.163-.239.261a5.596 5.596 0 0 0-.794 1.692c-.044.163-.049.332-.082.5-.054.305-.141.598-.147.908L0 255.403c-.005.495.082.979.201 1.441-.283 1.12-.245 2.513.223 3.628.843 2.018 2.823 3.53 5.015 3.53h255.745c.071 0 .131-.234.201-.234.326-.027.642-.179.952-.288 2.431-.517 4.291-2.546 4.291-5.14 0-.228-.054-.457-.082-.674.034-.278.077-.583.077-.855zM91.561 163.733 15.67 84.426l117.582-70.12L250.29 84.48l-76.914 82.217-38.84-38.28c-1.017-1.023-2.404-.392-3.851-.392h-.016c-1.452 0-2.839-.615-3.856.419l-35.252 35.289zM12.336 96.674l71.181 74.385-72.519 71.295 1.338-145.68zm168.752 77.54 72.459-77.387 1.925 146.05-73.563-67.874-.821-.789zm-162.655 78.91 112.279-113.948L247.57 253.124H18.433z"/></symbol><symbol id="facebook" viewBox="0 0 33 33"><path fill="#6B7C93" fill-rule="evenodd" d="M0 16.5C0 7.387 7.387 0 16.5 0S33 7.387 33 16.5 25.613 33 16.5 33 0 25.613 0 16.5zM17.32 26v-9.001h2.366L20 13.897h-2.68l.004-1.552c0-.81.073-1.243 1.18-1.243h1.48V8h-2.368c-2.843 0-3.844 1.505-3.844 4.035v1.862H12V17h1.772v9h3.548z"/></symbol><symbol id="favicon" viewBox="0 0 24 23"><path fill-rule="evenodd" d="M15 2c0 .536-.06.688 0 1-.304-.063-.451 0-1 0H1c-.549 0-.696-.063-1 0 .06-.312 0-.464 0-1V1C0 .464.06.312 0 0c.304.063.451 0 1 0h13c.549 0 .696.063 1 0-.06.312 0 .464 0 1v1zM1 10c-.536 0-.688-.063-1 0 .063-.312 0-.464 0-1V8c0-.536.063-.688 0-1 .312.063.464 0 1 0h22c.536 0 .688.063 1 0-.063.312 0 .464 0 1v1c0 .536-.063.688 0 1-.312-.063-.464 0-1 0H1zm0 13c-.536 0-.688-.063-1 0 .063-.312 0-.464 0-1v-1c0-.536.063-.688 0-1 .312.063.464 0 1 0h22c.536 0 .688.063 1 0-.063.312 0 .464 0 1v1c0 .536-.063.688 0 1-.312-.063-.464 0-1 0H1zm13-10c.549 0 .696.063 1 0-.06.312 0 .464 0 1v1c0 .536-.06.688 0 1-.304-.063-.451 0-1 0H1c-.549 0-.696-.063-1 0 .06-.312 0-.464 0-1v-1c0-.536.06-.688 0-1 .304.063.451 0 1 0h13z"/></symbol><symbol class="icon" id="fire" viewBox="0 0 1024 1024"><path d="M834.1 469.2A347.49 347.49 0 0 0 751.2 354l-29.1-26.7a8.09 8.09 0 0 0-13 3.3l-13 37.3c-8.1 23.4-23 47.3-44.1 70.8-1.4 1.5-3 1.9-4.1 2-1.1.1-2.8-.1-4.3-1.5-1.4-1.2-2.1-3-2-4.8 3.7-60.2-14.3-128.1-53.7-202C555.3 171 510 123.1 453.4 89.7l-41.3-24.3c-5.4-3.2-12.3 1-12 7.3l2.2 48c1.5 32.8-2.3 61.8-11.3 85.9-11 29.5-26.8 56.9-47 81.5a295.64 295.64 0 0 1-47.5 46.1 352.6 352.6 0 0 0-100.3 121.5A347.75 347.75 0 0 0 160 610c0 47.2 9.3 92.9 27.7 136a349.4 349.4 0 0 0 75.5 110.9c32.4 32 70 57.2 111.9 74.7C418.5 949.8 464.5 959 512 959s93.5-9.2 136.9-27.3A348.6 348.6 0 0 0 760.8 857c32.4-32 57.8-69.4 75.5-110.9a344.2 344.2 0 0 0 27.7-136c0-48.8-10-96.2-29.9-140.9zM713 808.5c-53.7 53.2-125 82.4-201 82.4s-147.3-29.2-201-82.4c-53.5-53.1-83-123.5-83-198.4 0-43.5 9.8-85.2 29.1-124 18.8-37.9 46.8-71.8 80.8-97.9a349.6 349.6 0 0 0 58.6-56.8c25-30.5 44.6-64.5 58.2-101a240 240 0 0 0 12.1-46.5c24.1 22.2 44.3 49 61.2 80.4 33.4 62.6 48.8 118.3 45.8 165.7a74.01 74.01 0 0 0 24.4 59.8 73.36 73.36 0 0 0 53.4 18.8c19.7-1 37.8-9.7 51-24.4 13.3-14.9 24.8-30.1 34.4-45.6 14 17.9 25.7 37.4 35 58.4 15.9 35.8 24 73.9 24 113.1 0 74.9-29.5 145.4-83 198.4z"/></symbol><symbol id="images" viewBox="0 0 18 18"><g fill="none"><path fill="#DA3737" d="M16 0H2C.9 0 0 .9 0 2v14c0 1.1.9 2 2 2h14c1.1 0 2-.9 2-2V2c0-1.1-.9-2-2-2z"/><path fill="#DA3737" d="M16 0H2C.9 0 0 .9 0 2v14c0 1.1.9 2 2 2h14c1.1 0 2-.9 2-2V2c0-1.1-.9-2-2-2z"/><path fill="#FFF" d="M12.5 9.5 10 12.51 6.5 8 2 14h14z"/></g></symbol><symbol style="enable-background:new 0 0 400.004 400.004" id="leftarrow" viewBox="0 0 400.004 400.004"><path d="M382.688 182.686H59.116l77.209-77.214c6.764-6.76 6.764-17.726 0-24.485-6.764-6.764-17.73-6.764-24.484 0L5.073 187.757c-6.764 6.76-6.764 17.727 0 24.485l106.768 106.775a17.252 17.252 0 0 0 12.242 5.072c4.43 0 8.861-1.689 12.242-5.072 6.764-6.76 6.764-17.726 0-24.484l-77.209-77.218h323.572c9.562 0 17.316-7.753 17.316-17.315 0-9.562-7.753-17.314-17.316-17.314z"/></symbol><symbol id="linkedin" viewBox="0 0 33 33"><path fill="#6B7C93" fill-rule="evenodd" d="M0 16.5C0 7.387 7.387 0 16.5 0S33 7.387 33 16.5 25.613 33 16.5 33 0 25.613 0 16.5zm25 1.337c0-3.3-1.616-4.837-3.771-4.837-1.74 0-2.517 1.045-2.953 1.775v.036h-.021l.021-.036v-1.523H15C15.044 14.261 15 24 15 24h3.276v-6.003c0-.322.022-.64.109-.87.237-.643.775-1.307 1.68-1.307 1.186 0 1.66.986 1.66 2.43V24H25v-6.163zM11.012 8C9.796 8 9 8.864 9 10c0 1.11.773 2 1.966 2h.023c1.24 0 2.011-.89 2.011-2-.024-1.136-.771-2-1.988-2zM9 23h3V13H9v10z"/></symbol><symbol style="enable-background:new 0 0 436.432 436.432" id="location" viewBox="0 0 436.432 436.432"><path d="M346.946 74.322C320.077 27.784 271.954 0 218.216 0c-53.737 0-101.86 27.784-128.729 74.322-26.869 46.538-26.869 102.106 0 148.644l120.502 208.716a9.5 9.5 0 0 0 16.454 0l120.502-208.716c26.87-46.538 26.87-102.106.001-148.644zm-16.455 139.144L218.216 407.932 105.941 213.466c-23.434-40.59-23.434-89.055 0-129.644C129.376 43.232 171.348 19 218.216 19s88.841 24.232 112.275 64.822c23.435 40.589 23.434 89.054 0 129.644z"/><path d="M218.216 41.193c-59.363 0-107.659 48.296-107.659 107.659 0 59.364 48.296 107.66 107.659 107.66 59.364 0 107.66-48.296 107.66-107.66S277.58 41.193 218.216 41.193zm-41.447 186.013v-6.352c0-22.855 18.594-41.45 41.45-41.45s41.45 18.594 41.45 41.45v6.35c-12.378 6.575-26.486 10.308-41.452 10.308-14.965-.001-29.072-3.732-41.448-10.306zm41.447-119.648c14.568 0 26.421 11.853 26.421 26.421S232.785 160.4 218.216 160.4c-14.569 0-26.421-11.853-26.421-26.421s11.853-26.421 26.421-26.421zm60.054 106.454c-2.222-19.625-13.875-36.422-30.307-45.752 9.592-8.334 15.674-20.607 15.674-34.281 0-25.045-20.375-45.421-45.421-45.421s-45.421 20.376-45.421 45.421c0 13.675 6.083 25.949 15.676 34.283-16.432 9.331-28.085 26.129-30.305 45.754-17.579-16.212-28.609-39.422-28.609-65.164 0-48.887 39.772-88.659 88.659-88.659 48.887 0 88.66 39.772 88.66 88.659 0 25.74-11.03 48.949-28.606 65.16z"/></symbol><symbol id="Logo" viewBox="0 0 185 39"><g fill="none" fill-rule="evenodd"><text fill="#454F5B" font-family="ArialRoundedMTBold, Arial Rounded MT Bold" font-size="24">
            <tspan x="87" y="29">FairRate</tspan>
        </text><path d="M54 0 40 16h27L54 0m15 18L55 34h27L69 18"/></g></symbol><symbol id="pdf" viewBox="0 0 18 18"><g fill="none"><path fill="#DA3737" d="M16 0H2C.9 0 0 .9 0 2v14c0 1.1.9 2 2 2h14c1.1 0 2-.9 2-2V2c0-1.1-.9-2-2-2z"/><path fill="#FFF" d="M8.313 8c-.2.645-.487 1.334-.878 2.093-.174.331-.365.645-.435.907l.096-.035a16.367 16.367 0 0 1 2.904-.81 2.98 2.98 0 0 1-.357-.28C9.122 9.43 8.67 8.785 8.313 8zm6.408 3.661c-.165.184-.455.29-.881.29-.736 0-1.936-.222-2.904-.716-1.664.184-2.903.407-3.9.726-.048.02-.106.039-.174.068C5.662 14.081 4.772 15 3.988 15a.868.868 0 0 1-.426-.106l-.465-.3-.029-.049a.879.879 0 0 1-.048-.522c.106-.513.658-1.326 1.82-2.052.183-.136.473-.29.86-.474.29-.503.6-1.094.93-1.742.493-.997.803-1.984 1.045-2.836v-.01c-.358-1.17-.571-1.877-.213-3.164.087-.368.406-.745.765-.745h.232c.222 0 .435.077.59.232.639.639.339 2.197.02 3.484-.02.058-.03.107-.04.136.388 1.093.94 1.974 1.55 2.477.251.194.532.387.841.561.436-.048.852-.067 1.249-.067 1.2 0 1.926.212 2.206.667a.779.779 0 0 1 .117.533.935.935 0 0 1-.271.638zm-.802-.311c-.09-.1-.45-.35-1.712-.35-.063 0-.126 0-.207.1.658.32 1.297.51 1.712.51a.88.88 0 0 0 .17-.02h.037c.045-.02.072-.03.081-.13-.018-.03-.036-.07-.081-.11zM6 12c-.249.12-.45.23-.568.31-.84.65-1.373 1.31-1.432 1.69.533-.15 1.23-.81 2-2zm2.187-6 .05-.037c.07-.295.1-.553.16-.756l.03-.147c.1-.525.08-.793-.09-1.014L8.187 4c-.02.028-.05.074-.07.11-.17.388-.16 1.06.07 1.89z"/></g></symbol><symbol style="enable-background:new 0 0 202.592 202.592" id="phone" viewBox="0 0 202.592 202.592"><path d="m198.048 160.105-31.286-31.29c-6.231-6.206-16.552-6.016-23.001.433L128 145.009a649.985 649.985 0 0 1-3.11-1.732c-9.953-5.515-23.577-13.074-37.914-27.421C72.599 101.48 65.03 87.834 59.5 77.874c-.587-1.056-1.145-2.072-1.696-3.038l10.579-10.565 5.2-5.207c6.46-6.46 6.639-16.778.419-23.001L42.715 4.769c-6.216-6.216-16.541-6.027-23.001.433l-8.818 8.868.243.24c-2.956 3.772-5.429 8.124-7.265 12.816-1.696 4.466-2.752 8.729-3.235 12.998-4.13 34.25 11.52 65.55 53.994 108.028 58.711 58.707 106.027 54.273 108.067 54.055 4.449-.53 8.707-1.593 13.038-3.275 4.652-1.818 9.001-4.284 12.769-7.233l.193.168 8.933-8.747c6.446-6.459 6.632-16.777.415-23.015zm-7.365 16.059-3.937 3.93-1.568 1.507c-2.469 2.387-6.743 5.74-12.984 8.181-3.543 1.364-7.036 2.24-10.59 2.663-.447.043-44.95 3.84-100.029-51.235C14.743 94.38 7.238 67.395 10.384 41.259c.394-3.464 1.263-6.95 2.652-10.593 2.462-6.277 5.812-10.547 8.181-13.02l5.443-5.497c2.623-2.63 6.714-2.831 9.112-.433l31.286 31.286c2.394 2.401 2.205 6.492-.422 9.13L45.507 73.24l1.95 3.282c1.084 1.829 2.23 3.879 3.454 6.106 5.812 10.482 13.764 24.83 29.121 40.173 15.317 15.325 29.644 23.27 40.094 29.067 2.258 1.249 4.32 2.398 6.17 3.5l3.289 1.95 21.115-21.122c2.634-2.623 6.739-2.817 9.137-.426l31.272 31.279c2.391 2.397 2.201 6.488-.426 9.115z"/></symbol><symbol style="enable-background:new 0 0 395.001 395" id="question" viewBox="0 0 395.001 395"><path d="M322.852 0H72.15C32.366 0 0 32.367 0 72.15v250.7C0 362.634 32.367 395 72.15 395h250.701c39.784 0 72.15-32.366 72.15-72.15V72.15C395.002 32.367 362.635 0 322.852 0zm47.15 322.85c0 25.999-21.151 47.15-47.15 47.15H72.15C46.151 370 25 348.849 25 322.85V72.15C25 46.151 46.151 25 72.15 25h250.701c25.999 0 47.15 21.151 47.15 47.15l.001 250.7z"/><path d="M197.501 79.908c-33.775 0-61.253 27.479-61.253 61.254 0 6.903 5.596 12.5 12.5 12.5s12.5-5.597 12.5-12.5c0-19.99 16.263-36.254 36.253-36.254s36.253 16.264 36.253 36.254c0 11.497-8.314 19.183-22.01 30.474-12.536 10.334-26.743 22.048-26.743 40.67v40.104c0 6.902 5.597 12.5 12.5 12.5s12.5-5.598 12.5-12.5v-40.104c0-6.832 8.179-13.574 17.646-21.381 13.859-11.426 31.106-25.646 31.106-49.763.001-33.776-27.478-61.254-61.252-61.254zm0 203.116c-8.842 0-16.034 7.193-16.034 16.035 0 8.84 7.192 16.033 16.034 16.033 8.841 0 16.034-7.193 16.034-16.033 0-8.842-7.193-16.035-16.034-16.035z"/></symbol><symbol style="enable-background:new 0 0 330 330" id="rightarrow" viewBox="0 0 330 330"><path d="M15 180h263.787l-49.394 49.394c-5.858 5.857-5.858 15.355 0 21.213C232.322 253.535 236.161 255 240 255s7.678-1.465 10.606-4.394l75-75c5.858-5.857 5.858-15.355 0-21.213l-75-75c-5.857-5.857-15.355-5.857-21.213 0-5.858 5.857-5.858 15.355 0 21.213L278.787 150H15c-8.284 0-15 6.716-15 15s6.716 15 15 15z"/></symbol><symbol id="twitter" viewBox="0 0 33 33"><path fill="#6B7C93" fill-rule="evenodd" d="M0 16.5C0 7.387 7.387 0 16.5 0S33 7.387 33 16.5 25.613 33 16.5 33 0 25.613 0 16.5zm26-5.725a7.23 7.23 0 0 1-2.12.596 3.788 3.788 0 0 0 1.623-2.094 7.331 7.331 0 0 1-2.347.92A3.64 3.64 0 0 0 20.461 9c-2.039 0-3.692 1.696-3.692 3.787 0 .297.032.586.095.863-3.068-.158-5.789-1.666-7.61-3.958-.318.559-.5 1.21-.5 1.904 0 1.315.653 2.474 1.643 3.153a3.622 3.622 0 0 1-1.673-.476v.048c0 1.835 1.274 3.366 2.962 3.714-.31.086-.636.133-.973.133-.238 0-.47-.024-.695-.07.47 1.505 1.833 2.6 3.448 2.63A7.29 7.29 0 0 1 8 22.297 10.247 10.247 0 0 0 13.66 24c6.793 0 10.505-5.772 10.505-10.778l-.012-.49A7.481 7.481 0 0 0 26 10.775z"/></symbol><symbol id="upload-icon" viewBox="0 0 92 80"><g fill="none" fill-rule="evenodd"><g fill-rule="nonzero" opacity=".357"><path stroke="#979797" stroke-dasharray="1,1" stroke-width="2" d="M82.946 5.853 68.457 1.97c-1.992-.534-4.046.686-4.587 2.704l-7.886 29.36c-.541 2.018.628 4.102 2.62 4.636l21.752 5.828c1.992.534 4.064-.681 4.605-2.7l5.901-22.023-7.916-13.923zM78 17.659 80.588 8l7.071 12.247L78 17.66z"/><path fill="#637381" d="M73.045 28.34c-.36.571-.816 1.163-1.39 1.794-.254.275-.52.53-.655.764l.101-.01a16.367 16.367 0 0 1 3.016-.03 2.98 2.98 0 0 1-.272-.363c-.39-.564-.659-1.305-.8-2.155zm5.14 5.06c-.206.135-.514.162-.925.052-.71-.19-1.813-.716-2.62-1.443-1.655-.253-2.91-.359-3.955-.308-.052.006-.113.01-.186.02-1.69 1.671-2.788 2.329-3.545 2.126a.868.868 0 0 1-.384-.213l-.371-.41-.015-.055a.879.879 0 0 1 .088-.517c.236-.468.979-1.11 2.289-1.51.212-.084.533-.158.954-.236.411-.41.863-.9 1.349-1.442.734-.835 1.289-1.708 1.743-2.468l.003-.01c-.043-1.223-.066-1.96.613-3.111.18-.333.585-.615.931-.522l.225.06c.215.057.4.187.51.377.452.782-.242 2.21-.883 3.37-.034.051-.056.095-.073.121.091 1.157.396 2.15.855 2.794.193.252.414.511.668.76.433.066.84.155 1.223.258 1.16.31 1.806.704 1.959 1.216a.779.779 0 0 1-.026.544.935.935 0 0 1-.427.547zm-1.163-.565c-.061-.12-.345-.455-1.563-.781-.06-.017-.122-.033-.226.043.552.479 1.121.828 1.521.935.061.017.116.02.17.025l.036.01c.048-.008.077-.01.112-.105-.01-.034-.017-.077-.05-.127zm-7.573-1.317a5.006 5.006 0 0 0-.628.152c-.98.41-1.665.91-1.821 1.262.553-.007 1.398-.464 2.45-1.414zm3.731-5.538.058-.023c.144-.266.24-.508.35-.688l.067-.135c.233-.481.283-.745.176-1.002l-.133-.084a1.157 1.157 0 0 0-.096.089c-.265.33-.43.982-.422 1.843z"/></g><path d="M-11 23h64v64h-64z"/><path fill="#919EAB" fill-rule="nonzero" d="M26.875 27h-21.5C2.419 27 .027 29.385.027 32.3L0 74.7C0 77.615 2.392 80 5.348 80h32.277C40.581 80 43 77.615 43 74.7V42.9L26.875 27zM32 64.125h-7.875V72h-5.25v-7.875H11v-5.25h7.875V51h5.25v7.875H32v5.25zM24 46V31l15 15H24z"/></g></symbol></svg>