<svg xmlns="http://www.w3.org/2000/svg"><symbol style="enable-background:new 0 0 611.999 611.999" id="Bell" viewBox="0 0 611.999 611.999"><path d="M570.107 500.254c-65.037-29.371-67.511-155.441-67.559-158.622v-84.578c0-81.402-49.742-151.399-120.427-181.203C381.969 34 347.883 0 306.001 0c-41.883 0-75.968 34.002-76.121 75.849-70.682 29.804-120.425 99.801-120.425 181.203v84.578c-.046 3.181-2.522 129.251-67.561 158.622a17.257 17.257 0 0 0 7.103 32.986h164.88c3.38 18.594 12.172 35.892 25.619 49.903 17.86 18.608 41.479 28.856 66.502 28.856 25.025 0 48.644-10.248 66.502-28.856 13.449-14.012 22.241-31.311 25.619-49.903h164.88a17.26 17.26 0 0 0 16.872-13.626 17.25 17.25 0 0 0-9.764-19.358zm-85.673-60.395c6.837 20.728 16.518 41.544 30.246 58.866H97.32c13.726-17.32 23.407-38.135 30.244-58.866h356.87zM306.001 34.515c18.945 0 34.963 12.73 39.975 30.082-12.912-2.678-26.282-4.09-39.975-4.09s-27.063 1.411-39.975 4.09c5.013-17.351 21.031-30.082 39.975-30.082zM143.97 341.736v-84.685c0-89.343 72.686-162.029 162.031-162.029s162.031 72.686 162.031 162.029v84.826c.023 2.596.427 29.879 7.303 63.465H136.663c6.88-33.618 7.286-60.949 7.307-63.606zm162.031 235.749c-26.341 0-49.33-18.992-56.709-44.246h113.416c-7.379 25.254-30.364 44.246-56.707 44.246z"/><path d="M306.001 119.235c-74.25 0-134.657 60.405-134.657 134.654 0 9.531 7.727 17.258 17.258 17.258 9.531 0 17.258-7.727 17.258-17.258 0-55.217 44.923-100.139 100.142-100.139 9.531 0 17.258-7.727 17.258-17.258-.001-9.532-7.728-17.257-17.259-17.257z"/></symbol><symbol id="facebook" viewBox="0 0 33 33"><path fill="#6B7C93" fill-rule="evenodd" d="M0 16.5C0 7.387 7.387 0 16.5 0S33 7.387 33 16.5 25.613 33 16.5 33 0 25.613 0 16.5zM17.32 26v-9.001h2.366L20 13.897h-2.68l.004-1.552c0-.81.073-1.243 1.18-1.243h1.48V8h-2.368c-2.843 0-3.844 1.505-3.844 4.035v1.862H12V17h1.772v9h3.548z"/></symbol><symbol id="favicon" viewBox="0 0 24 23"><path fill-rule="evenodd" d="M15 2c0 .536-.06.688 0 1-.304-.063-.451 0-1 0H1c-.549 0-.696-.063-1 0 .06-.312 0-.464 0-1V1C0 .464.06.312 0 0c.304.063.451 0 1 0h13c.549 0 .696.063 1 0-.06.312 0 .464 0 1v1zM1 10c-.536 0-.688-.063-1 0 .063-.312 0-.464 0-1V8c0-.536.063-.688 0-1 .312.063.464 0 1 0h22c.536 0 .688.063 1 0-.063.312 0 .464 0 1v1c0 .536-.063.688 0 1-.312-.063-.464 0-1 0H1zm0 13c-.536 0-.688-.063-1 0 .063-.312 0-.464 0-1v-1c0-.536.063-.688 0-1 .312.063.464 0 1 0h22c.536 0 .688.063 1 0-.063.312 0 .464 0 1v1c0 .536-.063.688 0 1-.312-.063-.464 0-1 0H1zm13-10c.549 0 .696.063 1 0-.06.312 0 .464 0 1v1c0 .536-.06.688 0 1-.304-.063-.451 0-1 0H1c-.549 0-.696-.063-1 0 .06-.312 0-.464 0-1v-1c0-.536.06-.688 0-1 .304.063.451 0 1 0h13z"/></symbol><symbol id="linked-in" viewBox="0 0 33 33"><path fill="#6B7C93" fill-rule="evenodd" d="M0 16.5C0 7.387 7.387 0 16.5 0S33 7.387 33 16.5 25.613 33 16.5 33 0 25.613 0 16.5zm25 1.337c0-3.3-1.616-4.837-3.771-4.837-1.74 0-2.517 1.045-2.953 1.775v.036h-.021l.021-.036v-1.523H15C15.044 14.261 15 24 15 24h3.276v-6.003c0-.322.022-.64.109-.87.237-.643.775-1.307 1.68-1.307 1.186 0 1.66.986 1.66 2.43V24H25v-6.163zM11.012 8C9.796 8 9 8.864 9 10c0 1.11.773 2 1.966 2h.023c1.24 0 2.011-.89 2.011-2-.024-1.136-.771-2-1.988-2zM9 23h3V13H9v10z"/></symbol><symbol id="Logo" viewBox="0 0 185 39"><g fill="none" fill-rule="evenodd"><text fill="#454F5B" font-family="ArialRoundedMTBold, Arial Rounded MT Bold" font-size="24">
            <tspan x="87" y="29">FairRate</tspan>
        </text><path d="M54 0 40 16h27L54 0m15 18L55 34h27L69 18"/></g></symbol><symbol style="enable-background:new 0 0 202.592 202.592" id="phonecall" viewBox="0 0 202.592 202.592"><path style="fill:#010002" d="m198.048 160.105-31.286-31.29c-6.231-6.206-16.552-6.016-23.001.433L128 145.009a649.985 649.985 0 0 1-3.11-1.732c-9.953-5.515-23.577-13.074-37.914-27.421C72.599 101.48 65.03 87.834 59.5 77.874c-.587-1.056-1.145-2.072-1.696-3.038l10.579-10.565 5.2-5.207c6.46-6.46 6.639-16.778.419-23.001L42.715 4.769c-6.216-6.216-16.541-6.027-23.001.433l-8.818 8.868.243.24c-2.956 3.772-5.429 8.124-7.265 12.816-1.696 4.466-2.752 8.729-3.235 12.998-4.13 34.25 11.52 65.55 53.994 108.028 58.711 58.707 106.027 54.273 108.067 54.055 4.449-.53 8.707-1.593 13.038-3.275 4.652-1.818 9.001-4.284 12.769-7.233l.193.168 8.933-8.747c6.446-6.459 6.632-16.777.415-23.015zm-7.365 16.059-3.937 3.93-1.568 1.507c-2.469 2.387-6.743 5.74-12.984 8.181-3.543 1.364-7.036 2.24-10.59 2.663-.447.043-44.95 3.84-100.029-51.235C14.743 94.38 7.238 67.395 10.384 41.259c.394-3.464 1.263-6.95 2.652-10.593 2.462-6.277 5.812-10.547 8.181-13.02l5.443-5.497c2.623-2.63 6.714-2.831 9.112-.433l31.286 31.286c2.394 2.401 2.205 6.492-.422 9.13L45.507 73.24l1.95 3.282c1.084 1.829 2.23 3.879 3.454 6.106 5.812 10.482 13.764 24.83 29.121 40.173 15.317 15.325 29.644 23.27 40.094 29.067 2.258 1.249 4.32 2.398 6.17 3.5l3.289 1.95 21.115-21.122c2.634-2.623 6.739-2.817 9.137-.426l31.272 31.279c2.391 2.397 2.201 6.488-.426 9.115z"/></symbol><symbol id="twitter" viewBox="0 0 33 33"><path fill="#6B7C93" fill-rule="evenodd" d="M0 16.5C0 7.387 7.387 0 16.5 0S33 7.387 33 16.5 25.613 33 16.5 33 0 25.613 0 16.5zm26-5.725a7.23 7.23 0 0 1-2.12.596 3.788 3.788 0 0 0 1.623-2.094 7.331 7.331 0 0 1-2.347.92A3.64 3.64 0 0 0 20.461 9c-2.039 0-3.692 1.696-3.692 3.787 0 .297.032.586.095.863-3.068-.158-5.789-1.666-7.61-3.958-.318.559-.5 1.21-.5 1.904 0 1.315.653 2.474 1.643 3.153a3.622 3.622 0 0 1-1.673-.476v.048c0 1.835 1.274 3.366 2.962 3.714-.31.086-.636.133-.973.133-.238 0-.47-.024-.695-.07.47 1.505 1.833 2.6 3.448 2.63A7.29 7.29 0 0 1 8 22.297 10.247 10.247 0 0 0 13.66 24c6.793 0 10.505-5.772 10.505-10.778l-.012-.49A7.481 7.481 0 0 0 26 10.775z"/></symbol></svg>